<svg id="Component_59_1" data-name="Component 59 – 1" xmlns="http://www.w3.org/2000/svg" width="88" height="88" viewBox="0 0 88 88">
  <g id="Ellipse_272" data-name="Ellipse 272" transform="translate(10 10)" fill="#cbcbcb" stroke="#cbcbcb" stroke-width="1">
    <circle cx="1" cy="1" r="1" stroke="none"/>
    <circle cx="1" cy="1" r="0.5" fill="none"/>
  </g>
  <g id="Ellipse_272-2" data-name="Ellipse 272" transform="translate(32 10)" fill="#cbcbcb" stroke="#cbcbcb" stroke-width="1">
    <circle cx="1" cy="1" r="1" stroke="none"/>
    <circle cx="1" cy="1" r="0.5" fill="none"/>
  </g>
  <g id="Ellipse_272-3" data-name="Ellipse 272" transform="translate(54 10)" fill="#cbcbcb" stroke="#cbcbcb" stroke-width="1">
    <circle cx="1" cy="1" r="1" stroke="none"/>
    <circle cx="1" cy="1" r="0.5" fill="none"/>
  </g>
  <g id="Ellipse_272-4" data-name="Ellipse 272" transform="translate(76 10)" fill="#cbcbcb" stroke="#cbcbcb" stroke-width="1">
    <circle cx="1" cy="1" r="1" stroke="none"/>
    <circle cx="1" cy="1" r="0.5" fill="none"/>
  </g>
  <g id="Ellipse_272-5" data-name="Ellipse 272" transform="translate(10 32)" fill="#cbcbcb" stroke="#cbcbcb" stroke-width="1">
    <circle cx="1" cy="1" r="1" stroke="none"/>
    <circle cx="1" cy="1" r="0.5" fill="none"/>
  </g>
  <g id="Ellipse_272-6" data-name="Ellipse 272" transform="translate(32 32)" fill="#cbcbcb" stroke="#cbcbcb" stroke-width="1">
    <circle cx="1" cy="1" r="1" stroke="none"/>
    <circle cx="1" cy="1" r="0.5" fill="none"/>
  </g>
  <g id="Ellipse_272-7" data-name="Ellipse 272" transform="translate(54 32)" fill="#cbcbcb" stroke="#cbcbcb" stroke-width="1">
    <circle cx="1" cy="1" r="1" stroke="none"/>
    <circle cx="1" cy="1" r="0.5" fill="none"/>
  </g>
  <g id="Ellipse_272-8" data-name="Ellipse 272" transform="translate(76 32)" fill="#cbcbcb" stroke="#cbcbcb" stroke-width="1">
    <circle cx="1" cy="1" r="1" stroke="none"/>
    <circle cx="1" cy="1" r="0.5" fill="none"/>
  </g>
  <g id="Ellipse_272-9" data-name="Ellipse 272" transform="translate(10 54)" fill="#cbcbcb" stroke="#cbcbcb" stroke-width="1">
    <circle cx="1" cy="1" r="1" stroke="none"/>
    <circle cx="1" cy="1" r="0.5" fill="none"/>
  </g>
  <g id="Ellipse_272-10" data-name="Ellipse 272" transform="translate(32 54)" fill="#cbcbcb" stroke="#cbcbcb" stroke-width="1">
    <circle cx="1" cy="1" r="1" stroke="none"/>
    <circle cx="1" cy="1" r="0.5" fill="none"/>
  </g>
  <g id="Ellipse_272-11" data-name="Ellipse 272" transform="translate(54 54)" fill="#cbcbcb" stroke="#cbcbcb" stroke-width="1">
    <circle cx="1" cy="1" r="1" stroke="none"/>
    <circle cx="1" cy="1" r="0.5" fill="none"/>
  </g>
  <g id="Ellipse_272-12" data-name="Ellipse 272" transform="translate(76 54)" fill="#cbcbcb" stroke="#cbcbcb" stroke-width="1">
    <circle cx="1" cy="1" r="1" stroke="none"/>
    <circle cx="1" cy="1" r="0.5" fill="none"/>
  </g>
  <g id="Ellipse_272-13" data-name="Ellipse 272" transform="translate(10 76)" fill="#cbcbcb" stroke="#cbcbcb" stroke-width="1">
    <circle cx="1" cy="1" r="1" stroke="none"/>
    <circle cx="1" cy="1" r="0.5" fill="none"/>
  </g>
  <g id="Ellipse_272-14" data-name="Ellipse 272" transform="translate(32 76)" fill="#cbcbcb" stroke="#cbcbcb" stroke-width="1">
    <circle cx="1" cy="1" r="1" stroke="none"/>
    <circle cx="1" cy="1" r="0.5" fill="none"/>
  </g>
  <g id="Ellipse_272-15" data-name="Ellipse 272" transform="translate(54 76)" fill="#cbcbcb" stroke="#cbcbcb" stroke-width="1">
    <circle cx="1" cy="1" r="1" stroke="none"/>
    <circle cx="1" cy="1" r="0.5" fill="none"/>
  </g>
  <g id="Ellipse_272-16" data-name="Ellipse 272" transform="translate(76 76)" fill="#cbcbcb" stroke="#cbcbcb" stroke-width="1">
    <circle cx="1" cy="1" r="1" stroke="none"/>
    <circle cx="1" cy="1" r="0.5" fill="none"/>
  </g>
</svg>
