<svg xmlns="http://www.w3.org/2000/svg" width="34.349" height="34.234" viewBox="0 0 34.349 34.234">
  <g id="logoipsum-logo-1" transform="translate(27.48 6.77)">
    <path id="Path_3" data-name="Path 3" d="M36.869,13.68A11.45,11.45,0,0,0,16.983,5.938H2.52V36.463H33.056V22.2a21.311,21.311,0,0,0,2.815-3.852,11.437,11.437,0,0,0,1-4.665Zm-5.875,0a5.586,5.586,0,1,1-1.64-3.942,5.586,5.586,0,0,1,1.64,3.942ZM27.181,30.588H8.4V11.814H14.12a11.072,11.072,0,0,0-.174,1.866A11.473,11.473,0,0,0,25.408,25.141a11.206,11.206,0,0,0,1.773-.151Z" transform="translate(-30 -9)" fill="#021373"/>
  </g>
</svg>
